<svg width="1580" height="1024" fill="none" xmlns="http://www.w3.org/2000/svg"><path d="M722.617 80.557l88.526-48.016C941.521-38.176 1104.54 10.19 1175.26 140.567l403.92 744.697-88.53 48.017c-130.38 70.719-293.4 22.351-364.11-108.027L722.617 80.557zM200.886 128.874c-28.251-50.451-42.377-75.677-30.902-92.792 11.474-17.116 40.174-13.631 97.575-6.662l143.352 17.405c78.712 9.557 147.783 56.983 184.976 127.007l256.627 483.16a182.367 182.367 0 0113.899 137.005l-86.055 158.84c-25.652 47.353-38.478 71.023-58.312 71.163-19.834.14-32.99-23.36-59.301-70.342L200.886 128.874zM17.019 664.799c-36.111-64.775-12.875-146.559 51.9-182.67 64.775-36.111 146.559-12.875 182.67 51.9l130.77 234.57c36.111 64.775 12.874 146.559-51.9 182.67-64.775 36.111-146.559 12.875-182.67-51.9l-130.77-234.57z" fill="#26272A"/></svg>